# Blender v2.79 (sub 0) OBJ File: ''
# www.blender.org
mtllib windowlight.mtl
o カスタム少女_mesh_カスタム少女.001
v -2.430597 0.999063 19.092445
v -2.391557 2.834827 19.092447
v -0.490418 1.133738 19.092447
v -0.490418 1.133736 24.206156
v -2.391557 2.834826 24.206156
v -2.430597 1.717149 24.206158
v -2.430597 0.999065 13.017867
v -2.391557 2.834829 13.017868
v -0.490418 1.133740 13.017868
v -0.490418 1.133738 18.122246
v -2.391557 2.834828 18.122246
v -2.430597 1.717150 18.122246
v -2.430597 0.999067 6.989984
v -2.391557 2.834831 6.989985
v -0.490418 1.133742 6.989984
v -0.490418 1.133740 12.088950
v -2.391557 2.834829 12.088950
v -2.430597 1.717152 12.088950
v -2.430597 0.999075 -23.314856
v -2.391557 2.834840 -23.314857
v -0.490418 1.133750 -23.314857
v -0.490418 1.133748 -18.196522
v -2.391557 2.834838 -18.196522
v -2.430597 1.717161 -18.196522
v -2.430597 0.999073 -17.249765
v -2.391557 2.834838 -17.249767
v -0.490418 1.133748 -17.249767
v -0.490418 1.133746 -12.129951
v -2.391557 2.834836 -12.129951
v -2.430597 1.717159 -12.129951
v -2.430597 0.999068 0.926696
v -2.391557 2.834832 0.926696
v -0.490418 1.133743 0.926696
v -0.490418 1.133741 6.032017
v -2.391557 2.834831 6.032019
v -2.430597 1.717154 6.032020
v -2.430597 0.999072 -11.197099
v -2.391557 2.834836 -11.197098
v -0.490418 1.133746 -11.197098
v -0.490418 1.133745 -6.092197
v -2.391557 2.834834 -6.092196
v -2.430597 1.717157 -6.092196
v -2.430597 0.999070 -5.122048
v -2.391557 2.834834 -5.122046
v -0.490418 1.133745 -5.122048
v -0.490418 1.133743 -0.005726
v -2.391557 2.834833 -0.005726
v -2.430597 1.717156 -0.005726
vt 0.896120 0.494770
vt 0.896120 0.980870
vt 0.896120 0.494770
vt 0.092730 0.494770
vt 0.092730 0.980870
vt 0.092730 0.494770
vt 0.896120 0.494770
vt 0.896120 0.980870
vt 0.896120 0.494770
vt 0.092730 0.494770
vt 0.092730 0.980870
vt 0.092730 0.494770
vt 0.896120 0.494770
vt 0.896120 0.980870
vt 0.896120 0.494770
vt 0.092730 0.494770
vt 0.092730 0.980870
vt 0.092730 0.494770
vt 0.896120 0.494770
vt 0.896120 0.980870
vt 0.896120 0.494770
vt 0.092730 0.494770
vt 0.092730 0.980870
vt 0.092730 0.494770
vt 0.896120 0.494770
vt 0.896120 0.980870
vt 0.896120 0.494770
vt 0.092730 0.494770
vt 0.092730 0.980870
vt 0.092730 0.494770
vt 0.896120 0.494770
vt 0.896120 0.980870
vt 0.896120 0.494770
vt 0.092730 0.494770
vt 0.092730 0.980870
vt 0.092730 0.494770
vt 0.896120 0.494770
vt 0.896120 0.980870
vt 0.896120 0.494770
vt 0.092730 0.494770
vt 0.092730 0.980870
vt 0.092730 0.494770
vt 0.896120 0.494770
vt 0.896120 0.980870
vt 0.896120 0.494770
vt 0.092730 0.494770
vt 0.092730 0.980870
vt 0.092730 0.494770
vn 0.0000 0.0000 -1.0000
vn 0.5964 0.6666 -0.4472
vn 0.4715 0.5270 -0.7071
vn 0.5965 0.6665 0.4472
vn 0.4715 0.5269 0.7071
vn 0.0000 0.0000 1.0000
vn 0.5964 0.6666 0.4472
vn 0.5963 0.6666 0.4472
usemtl 手持ちの小物or背景_Tuuka2
s 1
f 1/1/1 2/2/2 3/3/3
f 3/3/3 2/2/2 4/4/4
f 5/5/5 4/4/4 2/2/2
f 4/4/4 5/5/5 6/6/6
f 7/7/1 8/8/2 9/9/3
f 9/9/3 8/8/2 10/10/7
f 11/11/5 10/10/7 8/8/2
f 10/10/7 11/11/5 12/12/6
f 13/13/1 14/14/2 15/15/3
f 15/15/3 14/14/2 16/16/7
f 17/17/5 16/16/7 14/14/2
f 16/16/7 17/17/5 18/18/6
f 19/19/1 20/20/2 21/21/3
f 21/21/3 20/20/2 22/22/7
f 23/23/5 22/22/7 20/20/2
f 22/22/7 23/23/5 24/24/6
f 25/25/1 26/26/2 27/27/3
f 27/27/3 26/26/2 28/28/7
f 29/29/5 28/28/7 26/26/2
f 28/28/7 29/29/5 30/30/6
f 31/31/1 32/32/2 33/33/3
f 33/33/3 32/32/2 34/34/7
f 35/35/5 34/34/7 32/32/2
f 34/34/7 35/35/5 36/36/6
f 37/37/1 38/38/2 39/39/3
f 39/39/3 38/38/2 40/40/7
f 41/41/5 40/40/7 38/38/2
f 40/40/7 41/41/5 42/42/6
f 43/43/1 44/44/2 45/45/3
f 45/45/3 44/44/2 46/46/8
f 47/47/5 46/46/8 44/44/2
f 46/46/8 47/47/5 48/48/6
